<svg xmlns="http://www.w3.org/2000/svg" xmlns:xlink="http://www.w3.org/1999/xlink" width="500" zoomAndPan="magnify" viewBox="0 0 375 374.999991" height="500" preserveAspectRatio="xMidYMid meet" version="1.0"><defs><g/><clipPath id="6b18b00c71"><path d="M 14.757812 16.355469 L 359.894531 16.355469 L 359.894531 361.492188 L 14.757812 361.492188 Z M 14.757812 16.355469 " clip-rule="nonzero"/></clipPath><clipPath id="122d5ae2ff"><path d="M 187.328125 16.355469 C 92.019531 16.355469 14.757812 93.617188 14.757812 188.921875 C 14.757812 284.230469 92.019531 361.492188 187.328125 361.492188 C 282.632812 361.492188 359.894531 284.230469 359.894531 188.921875 C 359.894531 93.617188 282.632812 16.355469 187.328125 16.355469 Z M 187.328125 16.355469 " clip-rule="nonzero"/></clipPath><clipPath id="5ec72b0a61"><path d="M 135.535156 137.128906 L 239.121094 137.128906 L 239.121094 240.714844 L 135.535156 240.714844 Z M 135.535156 137.128906 " clip-rule="nonzero"/></clipPath><clipPath id="fcdf563c83"><path d="M 187.328125 137.128906 C 158.722656 137.128906 135.535156 160.320312 135.535156 188.921875 C 135.535156 217.527344 158.722656 240.714844 187.328125 240.714844 C 215.929688 240.714844 239.121094 217.527344 239.121094 188.921875 C 239.121094 160.320312 215.929688 137.128906 187.328125 137.128906 Z M 187.328125 137.128906 " clip-rule="nonzero"/></clipPath></defs><g clip-path="url(#6b18b00c71)"><g clip-path="url(#122d5ae2ff)"><path fill="#fefdfd" d="M 14.757812 16.355469 L 359.894531 16.355469 L 359.894531 361.492188 L 14.757812 361.492188 Z M 14.757812 16.355469 " fill-opacity="1" fill-rule="nonzero"/></g></g><g clip-path="url(#5ec72b0a61)"><g clip-path="url(#fcdf563c83)"><path fill="#060606" d="M 135.535156 137.128906 L 239.121094 137.128906 L 239.121094 240.714844 L 135.535156 240.714844 Z M 135.535156 137.128906 " fill-opacity="1" fill-rule="nonzero"/></g></g><g fill="#fefdfd" fill-opacity="1"><g transform="translate(297.430298, 58.17048)"><g><path d="M 22.984375 -9.625 C 24.160156 -9.625 25.238281 -9.742188 26.21875 -9.984375 C 27.195312 -10.234375 28.21875 -10.546875 29.28125 -10.921875 L 29.28125 -1.4375 C 27.851562 -0.8125 26.347656 -0.304688 24.765625 0.078125 C 23.179688 0.472656 21.15625 0.671875 18.6875 0.671875 C 16.238281 0.671875 14.082031 0.289062 12.21875 -0.46875 C 10.351562 -1.238281 8.90625 -2.570312 7.875 -4.46875 C 6.84375 -6.375 6.328125 -9.023438 6.328125 -12.421875 L 6.328125 -27.984375 L 1.765625 -27.984375 L 1.765625 -33.28125 L 7.5625 -37.375 L 10.921875 -45.296875 L 19.453125 -45.296875 L 19.453125 -37.734375 L 28.71875 -37.734375 L 28.71875 -27.984375 L 19.453125 -27.984375 L 19.453125 -13.296875 C 19.453125 -12.066406 19.757812 -11.144531 20.375 -10.53125 C 21 -9.925781 21.867188 -9.625 22.984375 -9.625 Z M 22.984375 -9.625 "/></g></g></g><g fill="#fefdfd" fill-opacity="1"><g transform="translate(328.806196, 58.17048)"><g><path d="M 14.390625 0 L 0 -37.734375 L 13.59375 -37.734375 L 19.984375 -15.421875 C 20.046875 -15.222656 20.160156 -14.710938 20.328125 -13.890625 C 20.492188 -13.066406 20.578125 -12.300781 20.578125 -11.59375 L 20.8125 -11.59375 C 20.8125 -12.34375 20.890625 -13.0625 21.046875 -13.75 C 21.203125 -14.445312 21.328125 -14.984375 21.421875 -15.359375 L 28.109375 -37.734375 L 41.671875 -37.734375 L 27.28125 0 Z M 14.390625 0 "/></g></g></g></svg>